<svg width="1135" height="606" viewBox="0 0 1135 606" fill="none" xmlns="http://www.w3.org/2000/svg">
<path d="M10.9688 339V91.5H61.875L84.6562 210.047V91.5H132.469V339H84.0938L59.3438 215.25V339H10.9688ZM154.406 339V91.5H253.406V139.312H204.75V187.547H251.438V234.094H204.75V290.766H256.641V339H154.406ZM330.75 341.25C312.844 341.25 298.406 335.672 287.438 324.516C276.562 313.359 271.125 297.75 271.125 277.688V163.5C271.125 139.5 275.859 121.125 285.328 108.375C294.891 95.625 310.406 89.25 331.875 89.25C343.594 89.25 354 91.4062 363.094 95.7188C372.281 100.031 379.5 106.5 384.75 115.125C390 123.656 392.625 134.438 392.625 147.469V190.219H343.406V153.656C343.406 146.25 342.469 141.281 340.594 138.75C338.719 136.125 335.812 134.812 331.875 134.812C327.281 134.812 324.188 136.5 322.594 139.875C321 143.156 320.203 147.562 320.203 153.094V276.984C320.203 283.828 321.188 288.656 323.156 291.469C325.219 294.281 328.125 295.688 331.875 295.688C336.094 295.688 339.047 293.953 340.734 290.484C342.516 287.016 343.406 282.516 343.406 276.984V232.406H393.188V279.234C393.188 300.984 387.703 316.781 376.734 326.625C365.766 336.375 350.438 341.25 330.75 341.25ZM409.781 339V91.5H459V179.953H482.344V91.5H531.562V339H482.344V226.781H459V339H409.781ZM546.75 339L570.656 91.5H654.609L678.094 339H631.266L627.75 299.062H597.938L594.844 339H546.75ZM601.453 259.547H623.953L613.125 133.688H610.875L601.453 259.547ZM693.281 339V91.5H792.281V139.312H743.625V187.547H790.312V234.094H743.625V290.766H795.516V339H693.281ZM834.75 339L804.234 91.3594H851.344L869.484 259.828L885.656 91.3594H932.766L902.25 339H834.75ZM934.594 339L958.5 91.5H1042.45L1065.94 339H1019.11L1015.59 299.062H985.781L982.688 339H934.594ZM989.297 259.547H1011.8L1000.97 133.688H998.719L989.297 259.547Z" fill="#CF0060"/>
<g filter="url(#filter0_f_20_553)">
<path d="M621.764 460.987L675.655 218.246L758.982 228.477L752.129 476.994L705.65 471.287L707.028 431.219L677.437 427.586L669.499 466.848L621.764 460.987ZM685.742 388.793L708.075 391.535L712.666 265.294L710.433 265.02L685.742 388.793ZM767.203 478.845L797.366 233.19L864.921 241.485C882.601 243.655 895.302 250.221 903.023 261.181C910.757 272.048 913.464 286.927 911.144 305.816L897.023 420.827C894.166 444.09 887.867 461.546 878.125 473.196C868.475 484.857 853.462 489.436 833.083 486.934L767.203 478.845ZM821.943 441.503L830.458 442.549C839.483 443.657 844.533 439.838 845.607 431.091L861.169 304.355C862.174 296.167 861.703 290.772 859.755 288.172C857.912 285.49 853.641 283.737 846.941 282.915L841.498 282.246L821.943 441.503ZM966.245 505.551C943.819 502.798 928.314 495.227 919.729 482.838C911.236 470.461 908.487 452.082 911.48 427.703L914.428 403.696L963.001 409.66L959.23 440.367C958.533 446.043 958.822 450.612 960.097 454.074C961.477 457.455 964.307 459.408 968.587 459.934C973.054 460.482 976.284 459.557 978.279 457.157C980.367 454.769 981.776 450.597 982.508 444.642C983.433 437.104 983.46 430.732 982.588 425.524C981.728 420.224 979.716 415.065 976.554 410.049C973.496 404.951 969.088 398.931 963.328 391.99L943.846 368.345C929.284 350.784 923.231 332 925.687 311.994C928.258 291.057 935.056 275.693 946.082 265.901C957.2 256.121 971.972 252.362 990.396 254.624C1012.91 257.389 1028.14 265.35 1036.06 278.508C1044.08 291.677 1046.58 310.497 1043.58 334.97L993.61 328.834L995.684 311.946C996.095 308.596 995.438 305.87 993.712 303.769C992.08 301.68 989.635 300.435 986.378 300.035C982.47 299.555 979.449 300.318 977.313 302.323C975.283 304.246 974.056 306.929 973.633 310.372C973.21 313.815 973.684 317.651 975.054 321.881C976.423 326.11 979.533 331.168 984.383 337.053L1009.38 367.749C1014.39 373.843 1018.9 380.205 1022.9 386.836C1026.91 393.374 1029.87 400.822 1031.77 409.178C1033.69 417.442 1033.94 427.296 1032.54 438.741C1029.7 461.818 1023.2 479.391 1013.03 491.46C1002.96 503.448 987.367 508.145 966.245 505.551Z" fill="#CF0060"/>
</g>
<g filter="url(#filter1_f_20_553)">
<path d="M621.762 460.987L675.653 218.246L758.98 228.477L752.127 476.994L705.648 471.287L707.026 431.219L677.435 427.586L669.498 466.848L621.762 460.987ZM685.741 388.793L708.073 391.535L712.664 265.294L710.431 265.02L685.741 388.793ZM767.201 478.845L797.364 233.19L864.919 241.485C882.599 243.655 895.3 250.221 903.021 261.181C910.755 272.048 913.462 286.927 911.142 305.816L897.021 420.827C894.164 444.09 887.865 461.546 878.123 473.196C868.474 484.857 853.46 489.436 833.082 486.934L767.201 478.845ZM821.941 441.503L830.456 442.549C839.482 443.657 844.531 439.838 845.605 431.091L861.167 304.355C862.172 296.167 861.701 290.772 859.753 288.172C857.91 285.49 853.639 283.737 846.939 282.915L841.496 282.246L821.941 441.503ZM966.243 505.551C943.817 502.798 928.312 495.227 919.727 482.838C911.234 470.461 908.485 452.082 911.478 427.703L914.426 403.696L962.999 409.66L959.228 440.367C958.531 446.043 958.82 450.612 960.095 454.074C961.475 457.455 964.305 459.408 968.585 459.934C973.052 460.482 976.282 459.557 978.277 457.157C980.365 454.769 981.775 450.597 982.506 444.642C983.431 437.104 983.458 430.732 982.586 425.524C981.726 420.224 979.714 415.065 976.552 410.049C973.494 404.951 969.086 398.931 963.326 391.99L943.844 368.345C929.282 350.784 923.229 332 925.685 311.994C928.256 291.057 935.054 275.693 946.08 265.901C957.198 256.121 971.97 252.362 990.394 254.624C1012.91 257.389 1028.13 265.35 1036.06 278.508C1044.08 291.677 1046.58 310.497 1043.58 334.97L993.608 328.834L995.682 311.946C996.093 308.596 995.436 305.87 993.71 303.769C992.078 301.68 989.633 300.435 986.376 300.035C982.468 299.555 979.447 300.318 977.311 302.323C975.281 304.246 974.054 306.929 973.631 310.372C973.208 313.815 973.682 317.651 975.052 321.881C976.421 326.11 979.531 331.168 984.382 337.053L1009.37 367.749C1014.39 373.843 1018.9 380.205 1022.9 386.836C1026.91 393.374 1029.87 400.822 1031.77 409.178C1033.69 417.442 1033.94 427.296 1032.54 438.741C1029.7 461.818 1023.2 479.391 1013.03 491.46C1002.96 503.448 987.365 508.145 966.243 505.551Z" fill="#CF0060"/>
</g>
<path d="M621.764 460.987L675.655 218.246L758.982 228.477L752.129 476.994L705.65 471.287L707.028 431.219L677.437 427.586L669.499 466.848L621.764 460.987ZM685.742 388.793L708.075 391.535L712.666 265.294L710.433 265.02L685.742 388.793ZM767.203 478.845L797.366 233.19L864.921 241.485C882.601 243.655 895.302 250.221 903.023 261.181C910.757 272.048 913.464 286.927 911.144 305.816L897.023 420.827C894.166 444.09 887.867 461.546 878.125 473.196C868.475 484.857 853.462 489.436 833.083 486.934L767.203 478.845ZM821.943 441.503L830.458 442.549C839.483 443.657 844.533 439.838 845.607 431.091L861.169 304.355C862.174 296.167 861.703 290.772 859.755 288.172C857.912 285.49 853.641 283.737 846.941 282.915L841.498 282.246L821.943 441.503ZM966.245 505.551C943.819 502.798 928.314 495.227 919.729 482.838C911.236 470.461 908.487 452.082 911.48 427.703L914.428 403.696L963.001 409.66L959.23 440.367C958.533 446.043 958.822 450.612 960.097 454.074C961.477 457.455 964.307 459.408 968.587 459.934C973.054 460.482 976.284 459.557 978.279 457.157C980.367 454.769 981.776 450.597 982.508 444.642C983.433 437.104 983.46 430.732 982.588 425.524C981.728 420.224 979.716 415.065 976.554 410.049C973.496 404.951 969.088 398.931 963.328 391.99L943.846 368.345C929.284 350.784 923.231 332 925.687 311.994C928.258 291.057 935.056 275.693 946.082 265.901C957.2 256.121 971.972 252.362 990.396 254.624C1012.91 257.389 1028.14 265.35 1036.06 278.508C1044.08 291.677 1046.58 310.497 1043.58 334.97L993.61 328.834L995.684 311.946C996.095 308.596 995.438 305.87 993.712 303.769C992.08 301.68 989.635 300.435 986.378 300.035C982.47 299.555 979.449 300.318 977.313 302.323C975.283 304.246 974.056 306.929 973.633 310.372C973.21 313.815 973.684 317.651 975.054 321.881C976.423 326.11 979.533 331.168 984.383 337.053L1009.38 367.749C1014.39 373.843 1018.9 380.205 1022.9 386.836C1026.91 393.374 1029.87 400.822 1031.77 409.178C1033.69 417.442 1033.94 427.296 1032.54 438.741C1029.7 461.818 1023.2 479.391 1013.03 491.46C1002.96 503.448 987.367 508.145 966.245 505.551Z" fill="white"/>
<defs>
<filter id="filter0_f_20_553" x="541.49" y="133.099" width="592.691" height="459.479" filterUnits="userSpaceOnUse" color-interpolation-filters="sRGB">
<feFlood flood-opacity="0" result="BackgroundImageFix"/>
<feBlend mode="normal" in="SourceGraphic" in2="BackgroundImageFix" result="shape"/>
<feGaussianBlur stdDeviation="40" result="effect1_foregroundBlur_20_553"/>
</filter>
<filter id="filter1_f_20_553" x="541.488" y="133.099" width="592.691" height="459.479" filterUnits="userSpaceOnUse" color-interpolation-filters="sRGB">
<feFlood flood-opacity="0" result="BackgroundImageFix"/>
<feBlend mode="normal" in="SourceGraphic" in2="BackgroundImageFix" result="shape"/>
<feGaussianBlur stdDeviation="40" result="effect1_foregroundBlur_20_553"/>
</filter>
</defs>
</svg>
